<svg width="64" height="64" viewBox="0 0 64 64" fill="none" xmlns="http://www.w3.org/2000/svg">
<g filter="url(#filter0_d_3718_56448)">
<path d="M8 28C8 14.7452 18.7452 4 32 4C45.2548 4 56 14.7452 56 28C56 41.2548 45.2548 52 32 52C18.7452 52 8 41.2548 8 28Z" fill="black"/>
<path d="M32 4.5C44.9787 4.5 55.5 15.0213 55.5 28C55.5 40.9787 44.9787 51.5 32 51.5C19.0213 51.5 8.5 40.9787 8.5 28C8.5 15.0213 19.0213 4.5 32 4.5Z" stroke="#E5E5E5"/>
<path d="M28.3982 28.1658C28.0732 28.2615 27.7154 28.341 27 28.5L27.0001 28.5C27.7155 28.659 28.0732 28.7385 28.3982 28.8342C31.6572 29.794 34.206 32.3428 35.1658 35.6018C35.2615 35.9268 35.341 36.2845 35.5 37L35.5 37C35.659 36.2845 35.7385 35.9268 35.8342 35.6018C36.794 32.3428 39.3428 29.794 42.6018 28.8342C42.9268 28.7385 43.2845 28.659 44 28.5L44 28.5C43.2845 28.341 42.9268 28.2615 42.6018 28.1658C39.3428 27.206 36.794 24.6572 35.8342 21.3982C35.7385 21.0732 35.659 20.7155 35.5 20.0001L35.5 20C35.341 20.7154 35.2615 21.0732 35.1658 21.3982C34.206 24.6572 31.6572 27.206 28.3982 28.1658Z" fill="white"/>
<path d="M24.6131 16.3392L24.5 16L24.3869 16.3392C24.0159 17.4523 23.8304 18.0089 23.5142 18.4711C23.2342 18.8805 22.8805 19.2342 22.4711 19.5142C22.0089 19.8304 21.4523 20.0159 20.3392 20.3869L20 20.5L20.3392 20.6131L20.3392 20.6131C21.4523 20.9841 22.0089 21.1696 22.4711 21.4858C22.8805 21.7658 23.2342 22.1195 23.5142 22.5289C23.8304 22.9911 24.0159 23.5477 24.3869 24.6608L24.5 25L24.6131 24.6608C24.9841 23.5477 25.1696 22.9911 25.4858 22.5289C25.7658 22.1195 26.1195 21.7658 26.5289 21.4858C26.9911 21.1696 27.5477 20.9841 28.6608 20.6131L29 20.5L28.6608 20.3869C27.5477 20.0159 26.9911 19.8304 26.5289 19.5142C26.1195 19.2342 25.7658 18.8805 25.4858 18.4711C25.1696 18.0089 24.9841 17.4523 24.6131 16.3392L24.6131 16.3392Z" fill="white"/>
<path d="M22 37L22 37C22.3442 37.1147 22.5162 37.1721 22.6745 37.2405C23.6097 37.6446 24.3554 38.3903 24.7595 39.3255C24.8279 39.4838 24.8853 39.6558 25 40L25 40C25.1147 39.6558 25.1721 39.4838 25.2405 39.3255C25.6446 38.3903 26.3903 37.6446 27.3255 37.2405C27.4838 37.1721 27.6558 37.1147 28 37L28 37C27.6558 36.8853 27.4838 36.8279 27.3255 36.7595C26.3903 36.3554 25.6446 35.6097 25.2405 34.6745C25.1721 34.5162 25.1147 34.3442 25 34L25 34C24.8853 34.3442 24.8279 34.5162 24.7595 34.6745C24.3554 35.6097 23.6097 36.3554 22.6745 36.7595C22.5162 36.8279 22.3442 36.8853 22 37Z" fill="white"/>
</g>
<defs>
<filter id="filter0_d_3718_56448" x="0" y="0" width="64" height="64" filterUnits="userSpaceOnUse" color-interpolation-filters="sRGB">
<feFlood flood-opacity="0" result="BackgroundImageFix"/>
<feColorMatrix in="SourceAlpha" type="matrix" values="0 0 0 0 0 0 0 0 0 0 0 0 0 0 0 0 0 0 127 0" result="hardAlpha"/>
<feOffset dy="4"/>
<feGaussianBlur stdDeviation="4"/>
<feColorMatrix type="matrix" values="0 0 0 0 0 0 0 0 0 0 0 0 0 0 0 0 0 0 0.161 0"/>
<feBlend mode="normal" in2="BackgroundImageFix" result="effect1_dropShadow_3718_56448"/>
<feBlend mode="normal" in="SourceGraphic" in2="effect1_dropShadow_3718_56448" result="shape"/>
</filter>
</defs>
</svg>
