<svg width="109" height="20" viewBox="0 0 109 20" fill="none" xmlns="http://www.w3.org/2000/svg">
<path d="M12.005 0.239303V3.04447H3.58955V7.9236H11.6461V10.7288H3.58955V16.0067H12.1912V18.8119H0V0.239303H12.005Z" fill="black"/>
<path d="M19.6888 0.239303V16.0067H28.7026V18.8119H16.0993V0.239303H19.6888Z" fill="black"/>
<path d="M43.725 0.239303V3.04447H35.3095V7.9236H43.366V10.7288H35.3095V16.0067H43.9111V18.8119H31.7199V0.239303H43.725Z" fill="black"/>
<path d="M50.97 0.239303L62.0046 13.2016V0.239303H65.5143V18.8119H62.43L51.329 5.63692V18.8119H47.8192V0.239303H50.97Z" fill="black"/>
<path d="M79.6593 0C81.5826 0 83.3109 0.398839 84.8442 1.19652C86.3864 1.98533 87.6139 3.12867 88.5268 4.62653C89.4397 6.11553 89.8961 7.75077 89.8961 9.53225C89.8961 11.2694 89.4486 12.8825 88.5534 14.3715C87.6671 15.8516 86.444 17.0038 84.8841 17.8281C83.333 18.6435 81.5826 19.0512 79.6327 19.0512C77.7094 19.0512 75.9589 18.6346 74.3813 17.8015C72.8126 16.9684 71.5894 15.825 70.712 14.3715C69.8346 12.9091 69.3958 11.296 69.3958 9.53225C69.3958 7.83054 69.8346 6.23075 70.712 4.73289C71.5894 3.23503 72.7993 2.07396 74.3414 1.2497C75.8836 0.416565 77.6562 0 79.6593 0ZM73.105 9.53225C73.105 10.7642 73.3842 11.8721 73.9426 12.8559C74.501 13.8397 75.2765 14.6019 76.2692 15.1426C77.2707 15.6832 78.4007 15.9536 79.6593 15.9536C81.5648 15.9536 83.1292 15.3553 84.3523 14.1588C85.5843 12.9623 86.2002 11.4201 86.2002 9.53225C86.2002 8.30028 85.9211 7.19239 85.3627 6.20859C84.8132 5.21593 84.0332 4.44927 83.0228 3.90862C82.0213 3.36797 80.8913 3.09765 79.6327 3.09765C78.3741 3.09765 77.2397 3.3724 76.2293 3.92192C75.2277 4.46256 74.4567 5.22479 73.916 6.20859C73.3754 7.18353 73.105 8.29142 73.105 9.53225Z" fill="black"/>
<path d="M100.505 0.239303C102.251 0.239303 103.673 0.722341 104.772 1.68842C105.871 2.65449 106.421 3.91305 106.421 5.46409C106.421 6.5188 106.146 7.44056 105.597 8.22937C105.056 9.00933 104.249 9.62531 103.177 10.0773C103.771 10.3964 104.298 10.8307 104.759 11.3802C105.22 11.9297 105.792 12.8559 106.474 14.1588C107.608 16.41 108.45 17.961 109 18.8119H104.998C104.724 18.4042 104.351 17.7528 103.882 16.8576C102.853 14.8811 102.1 13.5517 101.621 12.8692C101.143 12.1779 100.682 11.6904 100.239 11.4068C99.7957 11.1143 99.2861 10.9681 98.71 10.9681H97.4071V18.8119H93.8175V0.239303H100.505ZM99.6938 8.1629C100.633 8.1629 101.369 7.92803 101.901 7.45829C102.441 6.98854 102.712 6.34597 102.712 5.53057C102.712 4.67971 102.446 4.046 101.914 3.62943C101.382 3.20401 100.624 2.99129 99.6406 2.99129H97.4071V8.1629H99.6938Z" fill="black"/>
</svg>
