<svg width="789" height="139" viewBox="0 0 789 139" fill="none" xmlns="http://www.w3.org/2000/svg">
<path d="M86.8989 2.63845V22.9437H25.9831V58.2615H84.3006V78.5668H25.9831V116.771H88.2462V137.077H0V2.63845H86.8989Z" fill="black" fill-opacity="0.1"/>
<path d="M142.518 2.63845V116.771H207.764V137.077H116.535V2.63845H142.518Z" fill="black" fill-opacity="0.1"/>
<path d="M316.505 2.63845V22.9437H255.589V58.2615H313.906V78.5668H255.589V116.771H317.852V137.077H229.606V2.63845H316.505Z" fill="black" fill-opacity="0.1"/>
<path d="M368.948 2.63845L448.822 96.4662V2.63845H474.228V137.077H451.901L371.546 41.7093V137.077H346.141V2.63845H368.948Z" fill="black" fill-opacity="0.1"/>
<path d="M576.616 0.90625C590.538 0.90625 603.048 3.79326 614.147 9.56727C625.31 15.2771 634.196 23.5532 640.804 34.3955C647.412 45.1737 650.716 57.0104 650.716 69.9057C650.716 82.4803 647.476 94.1566 640.997 104.935C634.581 115.649 625.727 123.989 614.436 129.955C603.209 135.858 590.538 138.809 576.424 138.809C562.502 138.809 549.831 135.794 538.412 129.763C527.056 123.732 518.202 115.456 511.851 104.935C505.5 94.3491 502.324 82.6727 502.324 69.9057C502.324 57.5878 505.5 46.0077 511.851 35.1654C518.202 24.3231 526.96 15.9187 538.123 9.95221C549.286 3.92157 562.117 0.90625 576.616 0.90625ZM529.173 69.9057C529.173 78.8234 531.194 86.8428 535.236 93.9641C539.278 101.085 544.891 106.603 552.077 110.516C559.326 114.43 567.506 116.387 576.616 116.387C590.41 116.387 601.733 112.056 610.587 103.395C619.504 94.734 623.963 83.5709 623.963 69.9057C623.963 60.9881 621.942 52.9686 617.9 45.8473C613.923 38.6619 608.277 33.1124 600.963 29.1989C593.714 25.2854 585.534 23.3287 576.424 23.3287C567.314 23.3287 559.102 25.3175 551.788 29.2952C544.538 33.2087 538.957 38.7261 535.043 45.8473C531.13 52.9045 529.173 60.9239 529.173 69.9057Z" fill="black" fill-opacity="0.1"/>
<path d="M727.507 2.63845C740.145 2.63845 750.442 6.13494 758.398 13.1279C766.353 20.1209 770.331 29.231 770.331 40.4583C770.331 48.0928 768.342 54.765 764.364 60.4748C760.451 66.1205 754.612 70.5794 746.85 73.8513C751.148 76.1609 754.965 79.3046 758.301 83.2822C761.638 87.2599 765.776 93.9641 770.716 103.395C778.928 119.691 785.022 130.918 789 137.077H760.034C758.045 134.126 755.35 129.41 751.95 122.93C744.508 108.624 739.055 99.0004 735.59 94.0604C732.126 89.0562 728.79 85.5277 725.582 83.4747C722.374 81.3575 718.685 80.299 714.515 80.299H705.084V137.077H679.101V2.63845H727.507ZM721.636 59.9937C728.437 59.9937 733.762 58.2935 737.611 54.8933C741.525 51.493 743.482 46.8418 743.482 40.9394C743.482 34.7805 741.557 30.1933 737.707 27.178C733.858 24.0985 728.373 22.5588 721.252 22.5588H705.084V59.9937H721.636Z" fill="black" fill-opacity="0.1"/>
</svg>
