<svg width="223" height="206" viewBox="0 0 223 206" fill="none" xmlns="http://www.w3.org/2000/svg">
<path d="M33.127 13.332L22.627 24.832L31.627 38.832C34.427 61.232 34.7936 99.1654 34.627 115.332C34.627 137.732 30.627 153.332 28.627 158.332C36.227 155.532 46.127 155.832 50.127 156.332L41.627 147.832L42.627 121.332L41.627 68.832L40.627 56.332L39.127 42.832L37.627 33.332L33.127 13.332Z" fill="white"/>
<path d="M186.627 16.3312L188.127 7.83124C152.627 -1.5021 80.4267 -3.76876 75.6267 61.8312C70.8267 127.431 128.293 139.831 157.627 137.831C170.027 138.231 180.793 140.665 184.627 141.831L169.127 150.831L193.627 158.831C188.427 149.231 181.127 112.831 178.127 95.8312C177.127 84.8312 174.927 60.3312 174.127 50.3312C173.327 40.3312 175.793 35.8312 177.127 34.8312L188.127 20.8312L186.627 16.3312Z" fill="white"/>
<path d="M169.127 151.331L193.127 159.331C139.527 169.331 61.4603 162.831 29.127 158.33C34.727 156.33 45.127 156.163 49.627 156.33L42.127 148.331C100.127 132.331 160.96 137.331 184.127 141.831L169.127 151.331Z" fill="#E7E7E7"/>
<path d="M33.627 14.332C64.7936 6.4987 140.027 -6.26613 187.627 7.33387L177.127 31.3337C140.46 30.3337 70.127 38.1338 82.127 77.3338C94.0101 116.152 152.963 135.292 181.785 140.193C182.072 140.24 182.352 140.287 182.627 140.334C182.349 140.288 182.069 140.241 181.785 140.193C159.64 136.575 102.15 133.118 42.127 147.334C43.127 112.667 42.627 38.832 33.627 14.332Z" fill="#FAFAFA"/>
<path d="M0.626953 167.887C3.44272 179.053 17.9876 194.685 53.641 167.887M55.9713 200.511C58.9813 200.996 66.9819 199.753 74.9049 190.898M159.457 189.151C161.204 194.297 168.778 204.705 185.09 205.171M170.525 167.887C175.769 176.14 193.479 189.209 222.374 175.46" stroke="#CCCBCE" stroke-width="0.75" stroke-linecap="round"/>
<path d="M46.3594 0.980469L48.6897 20.7879M53.6415 3.89333L55.3892 17.8751M59.7585 5.05847L60.9237 14.3796" stroke="#75757A" stroke-width="0.75"/>
<path d="M52.1855 152.449C59.1764 152.935 75.1389 154.022 83.0619 154.488C92.9656 155.071 155.01 157.401 171.322 152.449" stroke="#75757A" stroke-width="0.75" stroke-linecap="round"/>
<path d="M91.2168 131.48C91.2168 147.792 102.111 178.019 117.724 176.891C133.337 175.762 139.57 145.462 136.949 130.023" stroke="#75757A" stroke-width="0.75"/>
<path d="M87.1387 132.06L94.7121 130.895" stroke="#75757A" stroke-width="0.75"/>
<path d="M140.152 130.896L132.579 129.73" stroke="#75757A" stroke-width="0.75"/>
<path d="M83.0605 163.809C83.0605 180.121 94.1582 205.135 111.315 204.006C128.472 202.877 134.909 180.703 134.909 164.682" stroke="#75757A" stroke-width="0.75"/>
<path d="M29.4648 158.567C59.2731 163.228 133.862 169.927 193.75 159.441M50.4374 156.528L48.981 146.333M168.991 150.702C168.602 148.081 167.884 142.08 168.117 139.051" stroke="#75757A" stroke-width="0.75"/>
<path d="M33.5432 14.3789L34.4171 36.2254L22.7656 24.8652M34.4171 38.2644C37.427 56.5183 43.0974 100.075 41.6992 128.272" stroke="#75757A" stroke-width="0.75"/>
<path d="M34.7084 13.7963C64.4195 5.83452 136.717 -6.7102 188.216 6.80547L178.312 28.0696L174.817 38.8471L169.574 41.1774L174.817 42.0513M174.234 44.0903L171.322 46.1293L174.234 47.0031M174.234 49.3334C176.37 76.423 181.342 132.758 184.138 141.38C162.777 136.816 104.384 131.767 41.6992 148.079M41.6992 148.079C41.9905 121.184 42.107 64.5386 40.2428 53.1202M41.6992 148.079L49.5639 156.235C44.2043 154.837 33.5432 156.818 28.8826 157.983C38.2038 131.651 34.5142 67.5874 31.5042 38.8471L22.7656 24.8654L32.9606 13.7963M41.1166 50.4986L44.6121 47.2944L39.0776 43.5077L37.9125 35.3517L33.8345 14.6704" stroke="#75757A" stroke-width="0.75"/>
<path d="M184.137 142.253L169.281 150.991L193.749 159.147C189.574 148.273 180.408 118.076 177.146 84.2868M177.437 30.9814L177.146 34.4769L188.215 21.0777L186.758 16.1258L188.215 6.80469" stroke="#75757A" stroke-width="0.75"/>
<path d="M39.0762 34.4774C66.6513 28.4575 132.696 19.1557 176.272 30.1081" stroke="#75757A" stroke-width="0.75" stroke-linecap="round"/>
</svg>
