<svg width="217" height="206" viewBox="0 0 217 206" fill="none" xmlns="http://www.w3.org/2000/svg">
<rect x="0.5" y="0.5" width="216" height="205" rx="8" fill="white"/>
<path d="M159.11 45.0859C172.262 45.086 190.507 46.3798 200.569 47.1836L204.342 47.4932C206.206 47.65 207.625 49.2094 207.625 51.085V170.738C207.625 172.729 206.035 174.335 204.069 174.371L203.878 174.37C195.039 174.075 173.899 173.424 159.11 173.424H108.828V46.7012H108.831C109.067 46.6892 109.415 46.6717 109.865 46.6494C110.765 46.6047 112.073 46.5404 113.701 46.4639C116.958 46.3107 121.499 46.1065 126.637 45.9023C136.914 45.4939 149.572 45.0859 159.11 45.0859Z" fill="#F2F2F2" stroke="#4F4B53" stroke-width="0.75"/>
<path d="M58.8896 45.0859C45.7382 45.086 27.4933 46.3798 17.4307 47.1836L13.6582 47.4932C11.7943 47.65 10.3752 49.2094 10.375 51.085V170.738C10.375 172.729 11.9654 174.335 13.9307 174.371L14.1221 174.37C22.9613 174.075 44.1007 173.424 58.8896 173.424H109.172V46.7012H109.169C108.933 46.6892 108.585 46.6717 108.135 46.6494C107.235 46.6047 105.927 46.5404 104.299 46.4639C101.042 46.3107 96.5009 46.1065 91.3633 45.9023C81.0863 45.4939 68.4281 45.0859 58.8896 45.0859Z" fill="#F2F2F2" stroke="#4F4B53" stroke-width="0.75"/>
<path d="M157.421 40.834C166.423 40.834 177.959 41.5137 187.252 42.1943C191.897 42.5345 195.978 42.8747 198.898 43.1299C200.358 43.2575 201.529 43.3641 202.333 43.4385C202.658 43.4685 202.923 43.4928 203.124 43.5117V169.961C202.937 169.943 202.703 169.921 202.427 169.896C201.622 169.821 200.451 169.715 198.99 169.587C196.069 169.331 191.986 168.991 187.338 168.65C178.044 167.969 166.478 167.287 157.421 167.287C148.372 167.287 136.393 167.696 126.684 168.104C121.828 168.309 117.537 168.514 114.46 168.667C112.922 168.744 111.686 168.807 110.836 168.852C110.518 168.868 110.253 168.882 110.047 168.893V42.4414C110.26 42.43 110.543 42.4157 110.89 42.3975C111.74 42.3528 112.976 42.2885 114.515 42.2119C117.592 42.0588 121.883 41.8546 126.738 41.6504C136.45 41.2419 148.41 40.834 157.421 40.834Z" fill="#FAFAFA" stroke="#CCCBCE"/>
<path d="M60.5791 40.834C51.5766 40.834 40.0411 41.5137 30.748 42.1943C26.1033 42.5345 22.0217 42.8747 19.1016 43.1299C17.6415 43.2575 16.4715 43.3641 15.667 43.4385C15.3422 43.4685 15.0768 43.4928 14.876 43.5117V169.961C15.0633 169.943 15.2968 169.921 15.5732 169.896C16.3784 169.821 17.5492 169.715 19.0098 169.587C21.9308 169.331 26.0138 168.991 30.6621 168.65C39.9556 167.969 51.5218 167.287 60.5791 167.287C69.6285 167.287 81.6066 167.696 91.3164 168.104C96.1722 168.309 100.463 168.514 103.54 168.667C105.078 168.744 106.314 168.807 107.164 168.852C107.482 168.868 107.747 168.882 107.953 168.893V42.4414C107.74 42.43 107.457 42.4157 107.11 42.3975C106.26 42.3528 105.024 42.2885 103.485 42.2119C100.408 42.0588 96.1166 41.8546 91.2617 41.6504C81.5497 41.2419 69.5897 40.834 60.5791 40.834Z" fill="#FAFAFA" stroke="#CCCBCE"/>
<path d="M156.308 37.5527C165.1 37.5528 176.367 38.2384 185.443 38.9248C189.98 39.2679 193.966 39.6109 196.818 39.8682C198.244 39.9968 199.387 40.1037 200.173 40.1787C200.485 40.2085 200.741 40.233 200.937 40.252V167.771C200.756 167.754 200.532 167.733 200.269 167.708C199.482 167.633 198.339 167.525 196.913 167.396C194.06 167.139 190.071 166.796 185.53 166.452C176.453 165.765 165.155 165.077 156.308 165.077C147.468 165.077 135.768 165.489 126.284 165.901C121.541 166.107 117.35 166.313 114.345 166.468C112.842 166.545 111.635 166.61 110.805 166.655C110.5 166.672 110.246 166.685 110.047 166.696V39.1738C110.254 39.1624 110.527 39.147 110.86 39.1289C111.691 39.0839 112.898 39.0196 114.4 38.9424C117.406 38.788 121.598 38.5819 126.34 38.376C135.826 37.9641 147.507 37.5527 156.308 37.5527Z" fill="#FAFAFA" stroke="#CCCBCE"/>
<path d="M61.6924 37.5527C52.9002 37.5528 41.6335 38.2384 32.5566 38.9248C28.0201 39.2679 24.0337 39.6109 21.1816 39.8682C19.7556 39.9968 18.6129 40.1037 17.8271 40.1787C17.5146 40.2085 17.2585 40.233 17.0635 40.252V167.771C17.2442 167.754 17.4681 167.733 17.7314 167.708C18.5179 167.633 19.6606 167.525 21.0869 167.396C23.9402 167.139 27.9291 166.796 32.4697 166.452C41.5472 165.765 52.8447 165.077 61.6924 165.077C70.5319 165.077 82.2317 165.489 91.7158 165.901C96.4589 166.107 100.65 166.313 103.655 166.468C105.158 166.545 106.365 166.61 107.195 166.655C107.5 166.672 107.754 166.685 107.953 166.696V39.1738C107.746 39.1624 107.473 39.147 107.14 39.1289C106.309 39.0839 105.102 39.0196 103.6 38.9424C100.594 38.788 96.4021 38.5819 91.6602 38.376C82.1741 37.9641 70.4928 37.5527 61.6924 37.5527Z" fill="#FAFAFA" stroke="#CCCBCE"/>
<path d="M153.851 34.1465C162.7 34.1465 174.038 34.8291 183.17 35.5127C187.734 35.8544 191.746 36.1959 194.615 36.4521C196.05 36.5803 197.2 36.687 197.99 36.7617C198.371 36.7977 198.668 36.8258 198.874 36.8457V164.081C198.673 164.062 198.4 164.037 198.062 164.005C197.271 163.93 196.121 163.823 194.687 163.694C191.817 163.438 187.805 163.096 183.238 162.754C174.107 162.07 162.746 161.386 153.851 161.386C144.955 161.386 133.595 162.07 124.464 162.754C119.897 163.096 115.885 163.438 113.016 163.694C111.581 163.823 110.431 163.93 109.64 164.005C109.302 164.037 109.029 164.062 108.828 164.081V36.8457C109.034 36.8258 109.332 36.7977 109.712 36.7617C110.503 36.687 111.652 36.5803 113.087 36.4521C115.956 36.1959 119.967 35.8544 124.531 35.5127C133.663 34.8291 145.001 34.1465 153.851 34.1465Z" fill="white" stroke="#4F4B53" stroke-width="0.75"/>
<path d="M78.918 26.4883C87.71 26.4883 95.3117 29.0653 100.72 31.6475C103.423 32.938 105.574 34.2287 107.049 35.1953C107.786 35.6784 108.354 36.0808 108.736 36.3613C108.928 36.5016 109.073 36.6112 109.17 36.6855C109.171 36.6863 109.172 36.6868 109.173 36.6875V163.831C109.165 163.826 109.157 163.822 109.148 163.817C108.757 163.59 108.179 163.267 107.432 162.88C105.937 162.105 103.76 161.072 101.025 160.041C95.5582 157.979 87.8551 155.915 78.918 155.915C70.0028 155.915 54.9321 157.972 42.1152 160.022C35.7016 161.048 29.8435 162.074 25.5889 162.844C23.4615 163.229 21.734 163.549 20.5391 163.773C19.9418 163.886 19.4773 163.974 19.1621 164.034C19.1502 164.036 19.1384 164.038 19.127 164.04V36.7998C19.1835 36.7861 19.2487 36.7705 19.3213 36.7529C19.636 36.6769 20.1005 36.5657 20.6973 36.4238C21.8913 36.1399 23.6169 35.7339 25.7432 35.2471C29.9965 34.2733 35.852 32.975 42.2607 31.6768C55.0919 29.0775 70.0972 26.4883 78.918 26.4883Z" fill="white" stroke="#4F4B53" stroke-width="0.75"/>
<path d="M42.8172 41.9746C39.3167 41.9746 29.6901 44.1625 25.3145 45.2564V70.4166C28.815 68.6663 38.4415 67.4995 42.8172 67.1348V41.9746Z" fill="white" stroke="#F2F2F2"/>
<path d="M133.065 45.2617C128.69 44.7147 118.297 45.2617 115.016 45.8087V70.9689C118.844 70.422 128.69 70.4219 133.065 70.4219V45.2617Z" fill="white" stroke="#F2F2F2"/>
<path d="M133.065 78.5996C128.69 78.0526 118.297 78.5996 115.016 79.1466V104.307C118.844 103.76 128.69 103.76 133.065 103.76V78.5996Z" fill="white" stroke="#F2F2F2"/>
<path d="M133.065 111.939C128.69 111.392 118.297 111.939 115.016 112.486V137.647C118.844 137.1 128.69 137.1 133.065 137.1V111.939Z" fill="white" stroke="#F2F2F2"/>
<path d="M42.8172 77.7422C39.3167 77.7422 29.6901 79.93 25.3145 81.024V106.184C28.815 104.434 38.4415 103.267 42.8172 102.902V77.7422Z" fill="white" stroke="#F2F2F2"/>
<path d="M42.8172 113.508C39.3167 113.508 29.6901 115.696 25.3145 116.79V141.95C28.815 140.2 38.4415 139.033 42.8172 138.668V113.508Z" fill="white" stroke="#F2F2F2"/>
<path d="M98.6075 45.259C80.2296 38.6955 57.7677 42.5242 48.834 45.259V41.9772C77.276 33.6634 93.8671 38.5131 98.6075 41.9772V45.259Z" fill="#F2F2F2"/>
<path d="M98.6075 81.0246C80.2296 74.4611 57.7677 78.2898 48.834 81.0246V77.7428C77.276 69.429 93.8671 74.2787 98.6075 77.7428V81.0246Z" fill="#F2F2F2"/>
<path d="M98.6075 116.79C80.2296 110.227 57.7677 114.055 48.834 116.79V113.508C77.276 105.195 93.8671 110.044 98.6075 113.508V116.79Z" fill="#F2F2F2"/>
<path d="M105.171 155.193C93.1377 140.425 39.6476 151.392 25.3145 155.193V150.632C70.9467 139.079 101.889 141.519 105.171 150.632V155.193Z" fill="#F2F2F2"/>
<path d="M76.7289 48.5417C67.4306 47.4478 54.2895 49.7103 49.3809 52.3704V48.5417C63.6019 44.713 70.7123 43.987 76.7289 45.2599V48.5417Z" fill="#F2F2F2"/>
<path d="M76.7289 84.3093C67.4306 83.2154 54.2895 85.4778 49.3809 88.138V84.3093C63.6019 80.4806 70.7123 79.7546 76.7289 81.0275V84.3093Z" fill="#F2F2F2"/>
<path d="M76.7289 120.075C67.4306 118.981 54.2895 121.243 49.3809 123.904V120.075C63.6019 116.246 70.7123 115.52 76.7289 116.793V120.075Z" fill="#F2F2F2"/>
<path d="M49.3809 66.0421V62.2133C55.0693 60.0255 63.7842 59.4785 67.4306 59.4785V63.8542C63.93 63.4166 53.9389 65.1304 49.3809 66.0421Z" fill="#F2F2F2"/>
<path d="M49.3809 101.808V97.9789C55.0693 95.7911 63.7842 95.2441 67.4306 95.2441V99.6198C63.93 99.1823 53.9389 100.896 49.3809 101.808Z" fill="#F2F2F2"/>
<path d="M49.3809 137.573V133.745C55.0693 131.557 63.7842 131.01 67.4306 131.01V135.385C63.93 134.948 53.9389 136.662 49.3809 137.573Z" fill="#F2F2F2"/>
<circle cx="108.454" cy="99.4032" r="17.1278" fill="white" stroke="#75757A" stroke-width="0.75"/>
<path d="M101.891 92.8379L115.018 105.965" stroke="#75757A" stroke-width="2" stroke-linecap="round"/>
<path d="M115.018 92.8379L101.891 105.965" stroke="#75757A" stroke-width="2" stroke-linecap="round"/>
<path d="M186.668 46.3554C171.353 43.6206 147.834 43.9853 137.988 44.7146V48.5432C162.602 47.4493 181.016 49.4548 186.668 50.1841V46.3554Z" fill="#F2F2F2"/>
<path d="M186.668 79.6933C171.353 76.9585 147.834 77.3232 137.988 78.0524V81.8811C162.602 80.7872 181.016 82.7927 186.668 83.522V79.6933Z" fill="#F2F2F2"/>
<path d="M186.668 113.033C171.353 110.298 147.834 110.663 137.988 111.392V115.221C162.602 114.127 181.016 116.133 186.668 116.862V113.033Z" fill="#F2F2F2"/>
<path d="M193.778 150.819C168.618 147.202 132.518 148.085 115.016 150.205V153.698C154.944 151.702 184.633 154.53 193.778 155.195V150.819Z" fill="#F2F2F2"/>
<path d="M164.242 52.8461C154.944 51.7521 143.298 51.7016 137.988 52.367V55.6487C150.568 54.958 161.194 55.674 164.242 56.3394V52.8461Z" fill="#F2F2F2"/>
<path d="M164.242 86.1859C154.944 85.092 143.298 85.0414 137.988 85.7068V88.9886C150.568 88.2979 161.194 89.0138 164.242 89.6792V86.1859Z" fill="#F2F2F2"/>
<path d="M164.242 119.532C154.944 118.438 143.298 118.387 137.988 119.053V122.334C150.568 121.644 161.194 122.36 164.242 123.025V119.532Z" fill="#F2F2F2"/>
<path d="M158.773 67.0196C151.115 66.5876 142.192 66.3591 137.988 67.0196V70.2776C147.834 70.2776 155.491 70.2776 158.773 70.4875V67.0196Z" fill="#F2F2F2"/>
<path d="M158.773 100.367C151.115 99.9352 142.192 99.7067 137.988 100.367V103.625C147.834 103.625 155.491 103.625 158.773 103.835V100.367Z" fill="#F2F2F2"/>
<path d="M158.773 133.707C151.115 133.275 142.192 133.047 137.988 133.707V136.965C147.834 136.965 155.491 136.965 158.773 137.175V133.707Z" fill="#F2F2F2"/>
</svg>
