<svg width="281" height="206" viewBox="0 0 281 206" fill="none" xmlns="http://www.w3.org/2000/svg">
<path d="M143.038 137.502C147.702 137.095 173.538 136.505 182.038 131.508C167.038 143.508 143.626 147.625 130.038 146.5C111.804 144.989 97.0091 135.002 91.6618 129.023C86.0366 122.734 81.7592 114.464 80.4428 111.006C87.195 120.579 94.8539 126.769 97.009 128.385C98.7331 129.678 104.252 131.874 106.538 133.002C119.157 138.453 131.538 139.008 143.038 137.502Z" fill="#E7E7E7"/>
<path d="M119.039 36.5021L90.0391 44.0021C94.1478 40.8483 98.1498 37.296 102.038 34.9997C144.538 12.0024 173.538 33 180.038 37.498C184.895 40.8587 191.205 49.6647 193.538 53.998C184.538 44.498 186.038 46.998 181.538 42.998C177.938 39.798 169.038 36.3341 165.038 35.0021C146.238 28.6021 126.538 33.3355 119.039 36.5021Z" fill="#E7E7E7"/>
<path d="M92.5505 76.3283C88.9322 86.8074 90.7232 112.243 126.834 130.153C106.999 123.036 72.374 102.307 92.5505 76.3283Z" fill="#FAFAFA"/>
<path d="M185.113 87.1286C188.338 77.8179 186.831 55.2493 155 39.46C172.492 45.7186 203.004 64.0143 185.113 87.1286Z" fill="#FAFAFA"/>
<path d="M237.718 182.916C234.8 185.062 232.538 184.944 231.772 184.617C231.272 183.751 230.839 184.001 232.004 181.019C233.169 178.037 239.53 172.055 242.195 171.671C244.86 171.287 244.561 173.769 244.628 174.885C244.695 176.001 241.365 180.233 237.718 182.916Z" fill="#E7E7E7"/>
<path d="M232.797 179.404L191.373 138.656C189.695 140.549 189.942 142.177 190.275 142.754L231.516 184.185C231.209 182.053 232.242 180.109 232.797 179.404Z" fill="#E7E7E7"/>
<path d="M184.849 129.133C165.551 145.631 134.416 153.217 106.591 139.615C80.0108 126.622 69.3949 93.7263 82.8796 66.1405C96.3643 38.5547 140.179 21.952 174.581 38.769C200.336 51.3586 212.673 83.4842 199.189 111.07C196.662 116.239 193.119 121.102 188.789 125.475" stroke="#75757A" stroke-width="0.75"/>
<path d="M103.793 129.915C122.032 138.83 141.704 138.595 158.501 132.694C175.304 126.791 189.197 115.231 195.889 101.542C209.28 74.1481 197.028 42.2442 171.454 29.7426C154.353 21.3835 134.902 21.3253 118.039 26.7971C101.171 32.2706 86.941 43.2614 80.2536 56.9419C66.8541 84.3535 77.4104 117.018 103.793 129.915Z" stroke="#75757A" stroke-width="0.75"/>
<path d="M243.879 172.013L202.649 130.784C201.29 129.424 196.572 132.503 194.328 134.748C191.988 137.089 189.005 141.71 190.364 143.069L231.594 184.299C230.16 182.865 233.436 178.361 235.689 176.108C238.146 173.651 242.446 170.58 243.879 172.013Z" stroke="#75757A" stroke-width="0.75"/>
<path d="M243.877 172.012C246.334 174.469 241.625 179.178 240.191 180.611C238.963 181.84 234.049 186.754 231.592 184.297" stroke="#75757A" stroke-width="0.75"/>
<path d="M195.965 133.109L185.48 122.624C185.123 122.268 183.739 123.222 183.065 123.895C182.363 124.598 181.437 125.953 181.794 126.31L192.279 136.795" stroke="#75757A" stroke-width="0.75"/>
<path d="M198.426 131.473L209.031 142.078M239.786 172.833L224.409 157.455" stroke="#75757A" stroke-width="0.25"/>
<circle cx="140.5" cy="83.5" r="15.5" stroke="#75757A"/>
<path d="M134.5 77.5L146.5 89.5" stroke="#75757A" stroke-width="2" stroke-linecap="round"/>
<path d="M146.5 77.5L134.5 89.5" stroke="#75757A" stroke-width="2" stroke-linecap="round"/>
</svg>
