<svg width="225" height="206" viewBox="0 0 225 206" fill="none" xmlns="http://www.w3.org/2000/svg">
<path d="M169.648 151.335L193.648 159.335C140.048 169.335 61.9818 162.834 29.6484 158.334C35.2484 156.334 45.6484 156.167 50.1484 156.334L42.6484 148.335C100.648 132.335 161.482 137.335 184.648 141.835L169.648 151.335Z" fill="#E7E7E7"/>
<path d="M35.1484 13.8341C66.3151 6.00079 140.548 -6.26588 188.148 7.33412L177.648 31.334C140.982 30.334 70.6484 38.134 82.6484 77.334C94.5316 116.152 153.484 135.293 182.307 140.193C182.593 140.24 182.874 140.287 183.148 140.334C182.871 140.289 182.59 140.242 182.307 140.193C160.161 136.575 102.672 133.118 42.6484 147.334C43.6484 112.667 43.5484 37.4342 35.1484 13.8341Z" fill="#FAFAFA"/>
<path d="M1.14844 167.887C3.9642 179.053 18.5091 194.685 54.1625 167.887M56.4928 200.511C59.5027 200.996 67.5034 199.753 75.4264 190.898M160.935 189.151C162.683 194.297 170.256 204.705 186.568 205.171M172.004 167.887C177.247 176.14 194.957 189.209 223.853 175.46" stroke="#CCCBCE" stroke-width="0.75" stroke-linecap="round"/>
<path d="M46.8809 0.980469L49.2111 20.7879M54.163 3.89333L55.9107 17.8751M60.28 5.05847L61.4452 14.3796" stroke="#75757A" stroke-width="0.75"/>
<path d="M52.707 152.449C59.6979 152.935 75.6604 154.022 83.5833 154.488C93.4871 155.071 155.531 157.401 171.843 152.449" stroke="#75757A" stroke-width="0.75" stroke-linecap="round"/>
<path d="M91.7383 131.476C91.7383 147.788 102.632 178.016 118.245 176.887C133.858 175.758 140.092 145.458 137.47 130.02" stroke="#75757A" stroke-width="0.75"/>
<path d="M87.6602 132.06L95.2336 130.895" stroke="#75757A" stroke-width="0.75"/>
<path d="M140.674 130.896L133.1 129.73" stroke="#75757A" stroke-width="0.75"/>
<path d="M83.582 163.809C83.582 180.121 94.6797 205.135 111.837 204.006C128.994 202.877 135.431 180.703 135.431 164.682" stroke="#75757A" stroke-width="0.75"/>
<path d="M29.9863 158.567C59.7946 163.228 134.383 169.927 194.272 159.441M50.9589 156.528L49.5025 146.333M169.512 150.702C169.124 148.081 168.405 142.08 168.638 139.051" stroke="#75757A" stroke-width="0.75"/>
<path d="M34.0647 14.3789L34.9386 36.2254L23.2871 24.8652M34.9386 38.2644C37.9485 56.5183 43.6189 100.075 42.2207 128.272" stroke="#75757A" stroke-width="0.75"/>
<path d="M35.2298 13.7963C64.941 5.83452 137.238 -6.7102 188.738 6.80547L178.834 28.0696L175.338 38.8471L170.095 41.1774L175.338 42.0513M174.756 44.0903L171.843 46.1293L174.756 47.0031M174.756 49.3334C176.892 76.423 181.863 132.758 184.66 141.38C163.299 136.816 104.905 131.767 42.2207 148.079M42.2207 148.079C42.512 121.184 42.6285 64.5386 40.7643 53.1202M42.2207 148.079L50.0854 156.235C44.7258 154.837 34.0647 156.818 29.4041 157.983C38.7253 131.651 35.0356 67.5874 32.0257 38.8471L23.2871 24.8654L33.4821 13.7963M41.6381 50.4986L45.1336 47.2944L39.5991 43.5077L38.434 35.3517L34.356 14.6704" stroke="#75757A" stroke-width="0.75"/>
<path d="M184.658 142.257L169.803 150.995L194.271 159.151C190.096 148.277 180.93 118.08 177.667 84.2907M177.959 30.9853L177.667 34.4808L188.736 21.0816L187.28 16.1297L188.736 6.80859" stroke="#75757A" stroke-width="0.75"/>
<path d="M39.5977 34.4774C67.1727 28.4575 133.217 19.1557 176.793 30.1081" stroke="#75757A" stroke-width="0.75" stroke-linecap="round"/>
</svg>
