<svg width="42" height="28" viewBox="0 0 42 28" fill="none" xmlns="http://www.w3.org/2000/svg">
<rect x="0.5" y="0.5" width="41" height="27" rx="5.5" fill="white" stroke="#CCCBCE"/>
<path d="M21.5153 12.1969C21.4982 13.5899 22.718 14.3673 23.6368 14.8295C24.5809 15.3036 24.898 15.6078 24.8943 16.0319C24.8872 16.6808 24.1412 16.9673 23.4431 16.9784C22.2252 16.9979 21.517 16.639 20.9541 16.3675L20.5153 18.4867C21.0802 18.7554 22.1261 18.9897 23.2106 19C25.7565 19 27.4221 17.7028 27.4311 15.6915C27.4411 13.1388 24.0107 12.9976 24.0341 11.8566C24.0422 11.5106 24.362 11.1415 25.0628 11.0476C25.4096 11.0002 26.3672 10.9639 27.4528 11.4799L27.8789 9.42955C27.2951 9.21012 26.5447 9 25.6105 9C23.2143 9 21.5289 10.3149 21.5153 12.1969ZM31.9732 9.17661C31.5083 9.17661 31.1166 9.45652 30.9417 9.88607L27.305 18.8494H29.8491L30.3553 17.4052H33.4641L33.7577 18.8494H36L34.0433 9.17661H31.9732ZM32.3291 11.7896L33.0633 15.4218H31.0526L32.3291 11.7896ZM18.4308 9.17673L16.4255 18.8493H18.8497L20.8541 9.17649H18.4308M14.8445 9.17649L12.3212 15.7603L11.3005 10.1624C11.1807 9.53745 10.7078 9.17661 10.1825 9.17661H6.05777L6 9.45749C6.8468 9.64717 7.80891 9.95309 8.3918 10.2804C8.74852 10.4804 8.85023 10.6552 8.96742 11.1303L10.9007 18.8494H13.4625L17.3902 9.17661L14.8445 9.17649Z" fill="url(#paint0_linear_3397_78762)"/>
<defs>
<linearGradient id="paint0_linear_3397_78762" x1="1385.22" y1="39.06" x2="1415.1" y2="-987.901" gradientUnits="userSpaceOnUse">
<stop stop-color="#222357"/>
<stop offset="1" stop-color="#254AA5"/>
</linearGradient>
</defs>
</svg>
