<svg width="43" height="28" viewBox="0 0 43 28" fill="none" xmlns="http://www.w3.org/2000/svg">
<rect x="1" y="0.5" width="41" height="27" rx="5.5" fill="white" stroke="#CCCBCE"/>
<path d="M18.2559 8.58594H24.745V20.2459H18.2559V8.58594Z" fill="#FF5F00"/>
<path d="M18.6673 14.4162C18.6673 12.0472 19.7797 9.94589 21.4895 8.58621C20.233 7.5974 18.6468 7 16.9163 7C12.8167 7 9.5 10.3167 9.5 14.4162C9.5 18.5157 12.8167 21.8325 16.9162 21.8325C18.6467 21.8325 20.2329 21.2351 21.4895 20.2462C19.7797 18.9072 18.6673 16.7853 18.6673 14.4162Z" fill="#EB001B"/>
<path d="M33.4993 14.4162C33.4993 18.5157 30.1826 21.8325 26.0831 21.8325C24.3526 21.8325 22.7664 21.2351 21.5098 20.2462C23.2402 18.8866 24.3321 16.7853 24.3321 14.4162C24.3321 12.0472 23.2196 9.94589 21.5098 8.58621C22.7663 7.5974 24.3526 7 26.0831 7C30.1826 7 33.4993 10.3373 33.4993 14.4162Z" fill="#F79E1B"/>
</svg>
