<svg width="42" height="28" viewBox="0 0 42 28" fill="none" xmlns="http://www.w3.org/2000/svg">
<rect x="0.5" y="0.5" width="41" height="27" rx="5.5" fill="#006FCF" stroke="#CCCBCE"/>
<path fill-rule="evenodd" clip-rule="evenodd" d="M9.65583 13.9636L8.44365 11.1834L7.23887 13.9636H9.65583ZM21.2735 16.9722L21.2661 11.5119L18.6998 16.9722H17.1477L14.5725 11.5064V16.9722H10.9744L10.2944 15.4171H6.60913L5.92174 16.9722H4L7.16939 10H9.79774L12.8075 16.6018V10H15.696L18.0124 14.7293L20.1397 10H23.0873V16.9722H21.2735ZM25.9049 15.5465V14.1585H29.7897V12.7357H25.9049V11.4674H30.3411L32.2777 13.5L30.2554 15.5465H25.9049ZM37.895 17H35.5949L33.4159 14.6903L31.1512 17H24.1413V10.0251H31.2591L33.4366 12.3111L35.688 10.0251H38L34.5601 13.5125L37.895 17Z" fill="white"/>
</svg>
