<svg width="43" height="28" viewBox="0 0 43 28" fill="none" xmlns="http://www.w3.org/2000/svg">
<rect x="1" y="0.5" width="41" height="27" rx="5.5" fill="white" stroke="#CCCBCE"/>
<g clip-path="url(#clip0_3397_78774)">
<path d="M17.9438 17.6359L18.206 15.9684L17.6221 15.9548H14.834L16.7716 3.65015C16.7776 3.61301 16.7971 3.57837 16.8257 3.55377C16.8543 3.52918 16.8908 3.51562 16.9289 3.51562H21.6301C23.1907 3.51562 24.2678 3.8409 24.8301 4.48291C25.0937 4.78409 25.2616 5.09882 25.3428 5.44518C25.428 5.8086 25.4295 6.2428 25.3463 6.77237L25.3403 6.81102V7.15035L25.604 7.29994C25.826 7.4179 26.0024 7.55293 26.1377 7.70753C26.3632 7.96504 26.5091 8.29232 26.5707 8.68034C26.6344 9.0794 26.6133 9.55426 26.5091 10.0919C26.3888 10.7103 26.1944 11.2489 25.9317 11.6896C25.6902 12.0957 25.3824 12.4325 25.0171 12.6936C24.6682 12.9415 24.2538 13.1298 23.7852 13.2502C23.3311 13.3687 22.8134 13.4284 22.2455 13.4284H21.8796C21.618 13.4284 21.3639 13.5228 21.1645 13.692C20.9645 13.8646 20.8322 14.1006 20.7916 14.3586L20.764 14.5087L20.3009 17.4477L20.2799 17.5556C20.2744 17.5897 20.2648 17.6068 20.2508 17.6183C20.2383 17.6289 20.2202 17.6359 20.2027 17.6359H17.9438Z" fill="#253B80"/>
<path d="M25.8541 6.84375C25.8401 6.9336 25.824 7.02546 25.806 7.11983C25.186 10.3078 23.065 11.4091 20.3561 11.4091H18.9768C18.6456 11.4091 18.3664 11.6501 18.3148 11.9773L17.6086 16.4629L17.4086 17.7344C17.3751 17.9492 17.5405 18.143 17.757 18.143H20.2032C20.4929 18.143 20.739 17.9322 20.7846 17.646L20.8087 17.5215L21.2693 14.5941L21.2988 14.4335C21.3439 14.1463 21.5905 13.9355 21.8802 13.9355H22.2461C24.6162 13.9355 26.4716 12.9717 27.0139 10.1828C27.2404 9.01776 27.1231 8.04495 26.5237 7.36077C26.3423 7.15447 26.1172 6.9833 25.8541 6.84375Z" fill="#179BD7"/>
<path d="M25.2052 6.59006C25.1105 6.56245 25.0128 6.53735 24.9126 6.51477C24.8118 6.49268 24.7086 6.4731 24.6023 6.45604C24.2304 6.3958 23.823 6.36719 23.3864 6.36719H19.7017C19.611 6.36719 19.5248 6.38777 19.4476 6.42491C19.2777 6.50673 19.1514 6.66786 19.1209 6.86514L18.337 11.8376L18.3145 11.9827C18.3661 11.6554 18.6452 11.4144 18.9765 11.4144H20.3558C23.0647 11.4144 25.1857 10.3126 25.8057 7.12515C25.8242 7.03079 25.8397 6.93893 25.8538 6.84907C25.6969 6.76575 25.527 6.69447 25.3441 6.63373C25.299 6.61867 25.2524 6.60412 25.2052 6.59006Z" fill="#222D65"/>
<path d="M19.1211 6.86463C19.1517 6.66736 19.278 6.50622 19.4479 6.42491C19.5256 6.38776 19.6113 6.36718 19.702 6.36718H23.3867C23.8232 6.36718 24.2307 6.39579 24.6026 6.45603C24.7088 6.47309 24.8121 6.49267 24.9128 6.51476C25.0131 6.53735 25.1108 6.56244 25.2055 6.59005C25.2526 6.60411 25.2992 6.61866 25.3448 6.63322C25.5278 6.69396 25.6977 6.76574 25.8545 6.84856C26.039 5.67045 25.853 4.86831 25.217 4.14197C24.5159 3.34234 23.2504 3 21.6311 3H16.9299C16.5992 3 16.317 3.24094 16.2659 3.56873L14.3077 15.9999C14.2691 16.2458 14.4586 16.4677 14.7062 16.4677H17.6085L18.3373 11.8371L19.1211 6.86463Z" fill="#253B80"/>
<path d="M11.2808 19.8125H9.47836C9.35501 19.8125 9.25012 19.9022 9.23088 20.0242L8.50189 24.6533C8.4874 24.7446 8.55803 24.827 8.65054 24.827H9.51104C9.63438 24.827 9.73927 24.7373 9.75851 24.615L9.95512 23.3665C9.9741 23.2443 10.0793 23.1545 10.2023 23.1545H10.7729C11.9602 23.1545 12.6455 22.5791 12.8244 21.4388C12.9051 20.9399 12.8279 20.5479 12.5946 20.2734C12.3384 19.9719 11.8841 19.8125 11.2808 19.8125ZM11.4887 21.5032C11.3902 22.1509 10.896 22.1509 10.4182 22.1509H10.1462L10.337 20.9412C10.3483 20.8681 10.4116 20.8142 10.4854 20.8142H10.6101C10.9355 20.8142 11.2426 20.8142 11.4012 21.0001C11.4959 21.1109 11.5248 21.2756 11.4887 21.5032Z" fill="#253B80"/>
<path d="M16.6684 21.4876H15.8052C15.7317 21.4876 15.6682 21.5414 15.6569 21.6145L15.6186 21.8563L15.5583 21.7687C15.3714 21.4971 14.9547 21.4062 14.5389 21.4062C13.5851 21.4062 12.7704 22.1298 12.6118 23.1447C12.5293 23.651 12.6465 24.1351 12.9333 24.4727C13.1963 24.7831 13.5727 24.9125 14.0204 24.9125C14.789 24.9125 15.2151 24.4175 15.2151 24.4175L15.1767 24.6577C15.1622 24.7496 15.2328 24.832 15.3248 24.832H16.1023C16.2259 24.832 16.3302 24.7422 16.3497 24.62L16.8162 21.6612C16.831 21.5702 16.7606 21.4876 16.6684 21.4876ZM15.4652 23.1701C15.382 23.6639 14.9906 23.9955 14.4914 23.9955C14.2408 23.9955 14.0405 23.915 13.9119 23.7624C13.7843 23.6109 13.7358 23.3952 13.7764 23.155C13.8541 22.6654 14.2521 22.323 14.7436 22.323C14.9887 22.323 15.188 22.4046 15.3192 22.5584C15.4508 22.7139 15.5029 22.9309 15.4652 23.1701Z" fill="#253B80"/>
<path d="M21.2656 21.4844H20.3982C20.3155 21.4844 20.2377 21.5256 20.1908 21.5944L18.9946 23.3593L18.4875 21.6633C18.4556 21.5572 18.3578 21.4844 18.2471 21.4844H17.3948C17.2912 21.4844 17.2193 21.5857 17.2522 21.6834L18.2076 24.4914L17.3094 25.7614C17.2388 25.8614 17.3099 25.9989 17.432 25.9989H18.2983C18.3805 25.9989 18.4574 25.9588 18.5041 25.8912L21.3889 21.7206C21.458 21.6208 21.3871 21.4844 21.2656 21.4844Z" fill="#253B80"/>
<path d="M24.1363 19.8125H22.3336C22.2105 19.8125 22.1056 19.9022 22.0863 20.0242L21.3574 24.6533C21.3429 24.7446 21.4135 24.827 21.5055 24.827H22.4305C22.5165 24.827 22.59 24.7642 22.6034 24.6787L22.8103 23.3665C22.8293 23.2443 22.9345 23.1545 23.0575 23.1545H23.6279C24.8154 23.1545 25.5004 22.5791 25.6796 21.4388C25.7605 20.9399 25.6828 20.5479 25.4496 20.2734C25.1936 19.9719 24.7395 19.8125 24.1363 19.8125ZM24.3442 21.5032C24.2459 22.1509 23.7517 22.1509 23.2737 22.1509H23.0019L23.193 20.9412C23.2043 20.8681 23.2671 20.8142 23.3411 20.8142H23.4658C23.791 20.8142 24.0983 20.8142 24.257 21.0001C24.3516 21.1109 24.3803 21.2756 24.3442 21.5032Z" fill="#179BD7"/>
<path d="M29.5247 21.4876H28.6621C28.588 21.4876 28.525 21.5414 28.5139 21.6145L28.4757 21.8563L28.4151 21.7687C28.2282 21.4971 27.8118 21.4062 27.3959 21.4062C26.4421 21.4062 25.6278 22.1298 25.4691 23.1447C25.3869 23.651 25.5036 24.1351 25.7904 24.4727C26.0539 24.7831 26.4298 24.9125 26.8775 24.9125C27.6461 24.9125 28.0722 24.4175 28.0722 24.4175L28.0337 24.6577C28.0192 24.7496 28.0899 24.832 28.1824 24.832H28.9596C29.0827 24.832 29.1876 24.7422 29.2068 24.62L29.6736 21.6612C29.6878 21.5702 29.6172 21.4876 29.5247 21.4876ZM28.3215 23.1701C28.2388 23.6639 27.8469 23.9955 27.3477 23.9955C27.0976 23.9955 26.8968 23.915 26.7682 23.7624C26.6406 23.6109 26.5926 23.3952 26.6327 23.155C26.711 22.6654 27.1084 22.323 27.5999 22.323C27.845 22.323 28.0443 22.4046 28.1755 22.5584C28.3076 22.7139 28.3598 22.9309 28.3215 23.1701Z" fill="#179BD7"/>
<path d="M30.5425 19.9397L29.8027 24.6536C29.7882 24.7449 29.8588 24.8273 29.9508 24.8273H30.6945C30.8181 24.8273 30.923 24.7375 30.942 24.6153L31.6715 19.9865C31.686 19.8951 31.6154 19.8125 31.5234 19.8125H30.6906C30.6171 19.8128 30.5538 19.8666 30.5425 19.9397Z" fill="#179BD7"/>
</g>
<defs>
<clipPath id="clip0_3397_78774">
<rect width="25" height="23" fill="white" transform="translate(8.5 3)"/>
</clipPath>
</defs>
</svg>
