<svg width="42" height="28" viewBox="0 0 42 28" fill="none" xmlns="http://www.w3.org/2000/svg">
<rect x="0.5" y="0.5" width="41" height="27" rx="5.5" fill="white" stroke="#CCCBCE"/>
<path d="M11.9791 8.86558C12.3689 8.37135 12.632 7.6845 12.5605 7C11.9971 7.02415 11.316 7.3935 10.9149 7.88596C10.5515 8.32304 10.2372 9.02286 10.3239 9.6938C10.9504 9.74446 11.5892 9.3598 11.9791 8.86558ZM13.5976 13.2094C13.5852 11.729 14.7525 11.0168 14.8066 10.9815C14.148 9.98009 13.1266 9.84107 12.7627 9.82575C11.8923 9.73563 11.0625 10.3618 10.6225 10.3618C10.1808 10.3618 9.50143 9.83989 8.77809 9.8558C7.82939 9.86993 6.9545 10.4325 6.46607 11.3202C5.48302 13.1127 6.21651 15.76 7.17647 17.2097C7.6463 17.9195 8.20515 18.7171 8.94146 18.6883C9.65016 18.6594 9.91606 18.2088 10.7724 18.2088C11.627 18.2076 11.8687 18.6871 12.6151 18.6735C13.3768 18.6565 13.8601 17.949 14.3271 17.2356C14.864 16.4139 15.0865 15.6157 15.0978 15.5756C15.0826 15.565 13.6145 14.9795 13.5976 13.2094ZM22.6654 8.86499C22.3814 8.5787 22.0153 8.35603 21.577 8.20288C21.1426 8.05148 20.6209 7.97491 20.0266 7.97491C19.6459 7.97314 19.2654 7.99379 18.8869 8.03676C18.5714 8.07358 18.2569 8.11974 17.9439 8.17519L17.8521 8.19168V18.5987H18.7607V14.2143C19.0667 14.2691 19.4171 14.298 19.8035 14.298C20.3179 14.298 20.7995 14.229 21.2356 14.0941C21.6551 13.9694 22.0458 13.7563 22.3837 13.468C22.7092 13.1835 22.9709 12.8278 23.1504 12.4259C23.3363 12.0135 23.431 11.5287 23.431 10.9833C23.431 10.532 23.3628 10.1262 23.2299 9.77686C23.1013 9.4368 22.9094 9.12684 22.6654 8.86499ZM21.8305 12.84C21.364 13.2488 20.7038 13.4562 19.8661 13.4562C19.6356 13.4562 19.4176 13.4456 19.2176 13.4261C19.0638 13.4116 18.9113 13.3848 18.7613 13.346V8.92036C18.8813 8.89738 19.03 8.87559 19.2047 8.85615C19.4261 8.83141 19.6925 8.81904 19.9979 8.81904C20.3485 8.81538 20.698 8.86277 21.0361 8.95983C21.3243 9.04271 21.5951 9.18138 21.8344 9.36864C22.0524 9.54536 22.2237 9.77509 22.3426 10.052C22.4626 10.3324 22.5228 10.6669 22.5228 11.0457C22.5223 11.8321 22.289 12.4359 21.8305 12.84ZM28.8623 17.6244C28.8521 17.3299 28.8482 17.0342 28.8482 16.7396V13.8467C28.8482 13.5039 28.815 13.154 28.7502 12.8064C28.6877 12.4606 28.5598 12.1314 28.3739 11.838C28.1891 11.5482 27.9305 11.309 27.6071 11.1264C27.2838 10.9444 26.8635 10.8525 26.357 10.8525C25.9875 10.8525 25.6264 10.9026 25.2855 11.0021C24.9276 11.1098 24.5891 11.2781 24.2833 11.5005L24.2095 11.5541L24.5166 12.3051L24.6275 12.2268C24.8699 12.0567 25.1349 11.9249 25.414 11.8357C25.6961 11.7434 25.9899 11.6961 26.2855 11.6955C26.6641 11.6955 26.9666 11.7673 27.1824 11.9087C27.4015 12.0518 27.5666 12.2291 27.673 12.4365C27.784 12.6503 27.8567 12.8777 27.8888 13.1139C27.9232 13.3596 27.9395 13.5793 27.9395 13.7678V13.8514C26.5925 13.845 25.5407 14.0794 24.8422 14.5501C24.1092 15.0437 23.7374 15.7465 23.7374 16.6383C23.7374 16.8951 23.7814 17.1537 23.8681 17.4094C23.956 17.668 24.0895 17.8995 24.2642 18.0974C24.4399 18.2977 24.667 18.4609 24.9385 18.5828C25.2089 18.7059 25.5272 18.7678 25.8827 18.7678C26.386 18.7766 26.8813 18.635 27.3102 18.3596C27.4973 18.2388 27.6635 18.1016 27.8054 17.9537C27.866 17.8901 27.9237 17.8237 27.9784 17.7546H28.0133L28.0967 18.5993H28.9727L28.9485 18.4638C28.9004 18.1866 28.8716 17.906 28.8623 17.6244ZM27.9395 16.1423C27.9395 16.2436 27.9164 16.3827 27.8725 16.5494C27.8136 16.7297 27.7314 16.9008 27.628 17.0577C27.3978 17.4101 27.0636 17.6739 26.6765 17.8088C26.4415 17.8896 26.1953 17.9288 25.948 17.9248C25.785 17.9249 25.623 17.896 25.4692 17.8394C25.3198 17.7851 25.1827 17.6993 25.0664 17.5873C24.9445 17.4668 24.8482 17.3209 24.7836 17.159C24.712 16.9865 24.676 16.7726 24.676 16.524C24.676 16.117 24.7808 15.7865 24.9864 15.545C25.2078 15.2876 25.4859 15.0905 25.7965 14.9707C26.1484 14.8323 26.5166 14.7445 26.8911 14.7097C27.2395 14.6746 27.5895 14.6586 27.9395 14.662V16.1423ZM35.0293 11.0216L33.3336 15.8419C33.2277 16.1329 33.1291 16.4262 33.039 16.7119C32.9951 16.8545 32.9534 16.9894 32.9122 17.1178H32.8801C32.8378 16.9771 32.7946 16.8367 32.7506 16.6966C32.6627 16.4139 32.568 16.1364 32.4711 15.8719L30.6577 11.0216H29.6882L32.2824 17.9949C32.3506 18.1628 32.3607 18.24 32.3607 18.2712C32.3607 18.2806 32.3573 18.3378 32.2813 18.5498C32.1396 18.9282 31.9548 19.2874 31.7309 19.6196C31.523 19.9153 31.3326 20.1556 31.163 20.3329C30.9659 20.5391 30.7625 20.7082 30.5557 20.836C30.3445 20.9662 30.1518 21.0716 29.9811 21.1512L29.8831 21.1971L30.1991 22L30.2994 21.9611C30.3817 21.9287 30.536 21.8551 30.7704 21.7355C31.007 21.6136 31.2689 21.4204 31.5484 21.1588C31.796 20.9308 32.0158 20.6718 32.203 20.3877C32.3945 20.1003 32.5861 19.7627 32.7742 19.3881C32.9601 19.014 33.146 18.5887 33.3274 18.1228C33.5088 17.6545 33.7038 17.1308 33.9049 16.5682L36 11.0216H35.0293Z" fill="black"/>
</svg>
