<svg width="24" height="24" viewBox="0 0 24 24" fill="none" xmlns="http://www.w3.org/2000/svg">
<path d="M15.1743 15.5793H18.0903C19.2405 15.5604 21 16.1661 21 18.3513C21 20.6193 18.8292 21 18.0894 21H8.3514C6.0942 21 3 20.5419 3 16.653V8.4018H21V12.4671M15.1743 15.5793C15.1771 15.4801 15.2003 15.3815 15.2426 15.2917C15.2849 15.2019 15.3453 15.1218 15.42 15.0564L17.5 13M15.1743 15.5793C15.1718 15.6852 15.1926 15.7895 15.2354 15.8864C15.2782 15.9833 15.3418 16.0696 15.4218 16.1391L17.5 18M3.0054 8.3919L3.8343 6.3219C4.5075 4.7118 4.8441 3.9072 5.5263 3.4545C6.2085 3.0018 7.0833 3 8.832 3H15.15C16.8996 3 17.7744 3 18.4566 3.4536C19.1388 3.9063 19.4745 4.7109 20.1486 6.3201L21 8.3955M11.9667 8.4009V3.0009" stroke="#4F4B53" stroke-width="1.5" stroke-linecap="round" stroke-linejoin="round"/>
</svg>
