<svg width="100" height="20" viewBox="0 0 100 20" fill="none" xmlns="http://www.w3.org/2000/svg">
<path d="M8.92521 14.5733C8.92521 14.1846 8.87557 13.839 8.77628 13.5366C8.68409 13.2342 8.51743 12.9577 8.2763 12.7072C8.03517 12.4566 7.69476 12.2147 7.25506 11.9814C6.82245 11.7395 6.26928 11.4933 5.59554 11.2427C4.85798 10.9662 4.17716 10.6595 3.55306 10.3226C2.93606 9.97697 2.39708 9.57953 1.9361 9.13026C1.47512 8.67235 1.11698 8.14964 0.861671 7.56214C0.606361 6.96599 0.478706 6.27912 0.478706 5.50154C0.478706 4.7326 0.609907 4.03277 0.872309 3.40206C1.1418 2.77136 1.52122 2.22705 2.01057 1.76914C2.507 1.30259 3.09209 0.944034 3.76582 0.693479C4.43956 0.434285 5.18421 0.304688 5.99978 0.304688C7.14868 0.304688 8.13801 0.563882 8.96776 1.08227C9.80461 1.60066 10.4464 2.29617 10.8932 3.16879C11.3471 4.04141 11.5741 5.00475 11.5741 6.05881H8.92521C8.92521 5.43674 8.81529 4.88811 8.59544 4.41292C8.38268 3.92909 8.05645 3.54894 7.61675 3.27247C7.18414 2.99599 6.63451 2.85775 5.96787 2.85775C5.33669 2.85775 4.81188 2.97439 4.39346 3.20767C3.97503 3.44094 3.66299 3.7563 3.45732 4.15373C3.25166 4.55116 3.14882 5.00043 3.14882 5.50154C3.14882 5.85577 3.2162 6.17977 3.35094 6.47352C3.48569 6.75863 3.69136 7.02647 3.96794 7.27702C4.24453 7.51894 4.59203 7.74789 5.01046 7.96389C5.42888 8.17988 5.92177 8.38724 6.48913 8.58596C7.34725 8.89699 8.09546 9.24258 8.73373 9.62273C9.372 9.99425 9.9039 10.4176 10.3294 10.8928C10.7549 11.368 11.0741 11.908 11.2868 12.5128C11.4996 13.1089 11.606 13.7871 11.606 14.5474C11.606 15.3423 11.4748 16.0594 11.2124 16.6987C10.95 17.3295 10.5741 17.8694 10.0847 18.3187C9.60249 18.7593 9.02095 19.1006 8.34013 19.3425C7.66639 19.5758 6.91465 19.6924 6.08489 19.6924C5.34023 19.6924 4.60622 19.5715 3.88284 19.3296C3.16655 19.0877 2.51409 18.7205 1.92546 18.228C1.33683 17.7269 0.868763 17.1048 0.521258 16.3618C0.173753 15.6101 0 14.7332 0 13.731H2.67012C2.67012 14.3444 2.75522 14.8671 2.92543 15.2991C3.10273 15.7311 3.3474 16.0853 3.65944 16.3618C3.97149 16.6296 4.33318 16.8283 4.74451 16.9579C5.16294 17.0875 5.60973 17.1523 6.08489 17.1523C6.70898 17.1523 7.23024 17.0443 7.64866 16.8283C8.07418 16.6123 8.39332 16.31 8.60607 15.9212C8.81883 15.5324 8.92521 15.0831 8.92521 14.5733Z" fill="black"/>
<path d="M16.6595 0.563882V19.4333H13.9894V0.563882H16.6595ZM22.9784 8.81923V11.3982H15.9787V8.81923H22.9784ZM23.8614 0.563882V3.15583H15.9787V0.563882H23.8614Z" fill="black"/>
<path d="M35.1593 13.2903H37.8188C37.7337 14.5258 37.45 15.6274 36.9678 16.5951C36.4855 17.5541 35.8082 18.3101 34.9359 18.863C34.0636 19.416 33.0034 19.6924 31.7552 19.6924C30.7978 19.6924 29.9361 19.4851 29.1702 19.0704C28.4043 18.647 27.7483 18.0509 27.2022 17.2819C26.6561 16.5043 26.2377 15.5669 25.9469 14.4697C25.6632 13.3724 25.5214 12.1456 25.5214 10.7891V9.22098C25.5214 7.86453 25.6668 6.63768 25.9575 5.54042C26.2554 4.44316 26.6809 3.50574 27.2341 2.72816C27.7873 1.94193 28.4504 1.34147 29.2234 0.926755C30.0035 0.512043 30.8793 0.304688 31.8509 0.304688C33.0849 0.304688 34.1275 0.581162 34.9785 1.13411C35.8295 1.68706 36.4891 2.45168 36.9571 3.42798C37.4323 4.40428 37.7231 5.52314 37.8295 6.78455H35.17C35.0991 5.97241 34.943 5.2769 34.7019 4.69804C34.4679 4.11917 34.1204 3.67854 33.6594 3.37614C33.1984 3.06511 32.5956 2.90959 31.8509 2.90959C31.241 2.90959 30.7091 3.04783 30.2553 3.3243C29.8014 3.60078 29.422 4.00685 29.117 4.54252C28.812 5.07819 28.5816 5.73913 28.4255 6.52536C28.2766 7.30294 28.2021 8.19284 28.2021 9.19506V10.7891C28.2021 11.7395 28.2695 12.6035 28.4043 13.3811C28.5461 14.15 28.7589 14.8109 29.0425 15.3639C29.3333 15.9168 29.7021 16.3445 30.1489 16.6469C30.5957 16.9493 31.1311 17.1005 31.7552 17.1005C32.514 17.1005 33.1275 16.9536 33.5956 16.6599C34.0707 16.3661 34.4289 15.9384 34.67 15.3769C34.9182 14.8066 35.0813 14.1111 35.1593 13.2903Z" fill="black"/>
<path d="M49.4147 13.2903H52.0741C51.989 14.5258 51.7054 15.6274 51.2231 16.5951C50.7408 17.5541 50.0636 18.3101 49.1913 18.863C48.3189 19.416 47.2587 19.6924 46.0105 19.6924C45.0531 19.6924 44.1914 19.4851 43.4255 19.0704C42.6596 18.647 42.0036 18.0509 41.4575 17.2819C40.9114 16.5043 40.493 15.5669 40.2022 14.4697C39.9185 13.3724 39.7767 12.1456 39.7767 10.7891V9.22098C39.7767 7.86453 39.9221 6.63768 40.2129 5.54042C40.5107 4.44316 40.9362 3.50574 41.4894 2.72816C42.0426 1.94193 42.7057 1.34147 43.4787 0.926755C44.2588 0.512043 45.1347 0.304688 46.1063 0.304688C47.3403 0.304688 48.3828 0.581162 49.2338 1.13411C50.0848 1.68706 50.7444 2.45168 51.2125 3.42798C51.6876 4.40428 51.9784 5.52314 52.0848 6.78455H49.4253C49.3544 5.97241 49.1984 5.2769 48.9572 4.69804C48.7232 4.11917 48.3757 3.67854 47.9147 3.37614C47.4537 3.06511 46.8509 2.90959 46.1063 2.90959C45.4964 2.90959 44.9645 3.04783 44.5106 3.3243C44.0567 3.60078 43.6773 4.00685 43.3723 4.54252C43.0674 5.07819 42.8369 5.73913 42.6809 6.52536C42.5319 7.30294 42.4575 8.19284 42.4575 9.19506V10.7891C42.4575 11.7395 42.5248 12.6035 42.6596 13.3811C42.8014 14.15 43.0142 14.8109 43.2979 15.3639C43.5886 15.9168 43.9574 16.3445 44.4042 16.6469C44.851 16.9493 45.3864 17.1005 46.0105 17.1005C46.7694 17.1005 47.3828 16.9536 47.8509 16.6599C48.326 16.3661 48.6842 15.9384 48.9253 15.3769C49.1735 14.8066 49.3366 14.1111 49.4147 13.2903Z" fill="black"/>
<path d="M65.8513 12.3961H61.8195V9.81713H65.8513C66.5534 9.81713 67.1207 9.67889 67.5533 9.40242C67.9859 9.12594 68.3015 8.74579 68.5001 8.26196C68.7058 7.76949 68.8086 7.2079 68.8086 6.5772C68.8086 5.98105 68.7058 5.42378 68.5001 4.90539C68.3015 4.37836 67.9859 3.95501 67.5533 3.63534C67.1207 3.31566 66.5534 3.15583 65.8513 3.15583H62.6386V19.4333H59.9685V0.563882H65.8513C67.0498 0.563882 68.0675 0.823077 68.9043 1.34147C69.7483 1.85122 70.3901 2.55968 70.8298 3.46686C71.2695 4.3654 71.4893 5.39354 71.4893 6.55128C71.4893 7.76949 71.2695 8.81491 70.8298 9.68753C70.3901 10.5602 69.7483 11.2297 68.9043 11.6963C68.0675 12.1628 67.0498 12.3961 65.8513 12.3961Z" fill="black"/>
<path d="M73.9047 0.563882H79.3832C80.5605 0.563882 81.564 0.779878 82.3937 1.21187C83.2235 1.64386 83.8582 2.28321 84.2979 3.12991C84.7447 3.96797 84.9681 5.00475 84.9681 6.24024C84.9681 7.18198 84.8263 8.01141 84.5426 8.72851C84.2589 9.44562 83.8582 10.0504 83.3405 10.5429C82.8228 11.0267 82.2058 11.4025 81.4895 11.6704L80.681 12.1499H75.7557L75.7344 9.57089H79.4258C80.064 9.57089 80.5959 9.43266 81.0214 9.15618C81.447 8.87971 81.7661 8.50388 81.9789 8.02869C82.1987 7.54486 82.3086 7.00055 82.3086 6.39576C82.3086 5.73913 82.2022 5.16891 81.9895 4.68508C81.7838 4.19261 81.4647 3.81677 81.0321 3.55758C80.5995 3.28975 80.0498 3.15583 79.3832 3.15583H76.5748V19.4333H73.9047V0.563882ZM82.7448 19.4333L79.1066 10.9576L81.9044 10.9446L85.5957 19.2648V19.4333H82.7448Z" fill="black"/>
<path d="M100 9.48018V10.517C100 11.9425 99.8475 13.2212 99.5426 14.353C99.2376 15.4849 98.8014 16.4482 98.2341 17.2431C97.6738 18.0379 97.0001 18.647 96.2129 19.0704C95.4257 19.4851 94.5534 19.6924 93.596 19.6924C92.6456 19.6924 91.7769 19.4851 90.9897 19.0704C90.2096 18.647 89.5323 18.0379 88.9578 17.2431C88.3834 16.4482 87.9366 15.4849 87.6175 14.353C87.3054 13.2212 87.1494 11.9425 87.1494 10.517V9.48018C87.1494 8.05461 87.3054 6.78023 87.6175 5.65706C87.9295 4.52524 88.3692 3.5619 88.9366 2.76704C89.511 1.96353 90.1883 1.35443 90.9684 0.939714C91.7556 0.516363 92.6244 0.304688 93.5747 0.304688C94.5321 0.304688 95.4044 0.516363 96.1916 0.939714C96.9788 1.35443 97.6561 1.96353 98.2235 2.76704C98.7908 3.5619 99.227 4.52524 99.5319 5.65706C99.844 6.78023 100 8.05461 100 9.48018ZM97.3299 10.517V9.45426C97.3299 8.4002 97.2448 7.47142 97.0746 6.66792C96.9114 5.85577 96.6668 5.17755 96.3405 4.63324C96.0214 4.08029 95.6278 3.66558 95.1597 3.3891C94.6917 3.10399 94.1633 2.96143 93.5747 2.96143C92.9861 2.96143 92.4613 3.10399 92.0003 3.3891C91.5393 3.66558 91.1457 4.08029 90.8195 4.63324C90.5003 5.17755 90.2557 5.85577 90.0855 6.66792C89.9153 7.47142 89.8301 8.4002 89.8301 9.45426V10.517C89.8301 11.571 89.9153 12.5041 90.0855 13.3163C90.2557 14.1284 90.5039 14.8153 90.8301 15.3769C91.1634 15.9298 91.5606 16.3488 92.0216 16.6339C92.4825 16.9104 93.0073 17.0487 93.596 17.0487C94.1917 17.0487 94.72 16.9104 95.181 16.6339C95.642 16.3488 96.0321 15.9298 96.3512 15.3769C96.6703 14.8153 96.9114 14.1284 97.0746 13.3163C97.2448 12.5041 97.3299 11.571 97.3299 10.517Z" fill="black"/>
</svg>
