<svg width="100" height="20" viewBox="0 0 100 20" fill="none" xmlns="http://www.w3.org/2000/svg">
<path d="M8.92521 14.5748C8.92521 14.186 8.87557 13.8404 8.77628 13.538C8.68409 13.2356 8.51743 12.9592 8.2763 12.7086C8.03517 12.4581 7.69476 12.2161 7.25506 11.9829C6.82245 11.741 6.26928 11.4947 5.59554 11.2442C4.85798 10.9677 4.17716 10.661 3.55306 10.324C2.93607 9.97843 2.39708 9.581 1.9361 9.13173C1.47512 8.67382 1.11698 8.15111 0.861671 7.5636C0.606361 6.96745 0.478706 6.28059 0.478706 5.503C0.478706 4.73406 0.609907 4.03423 0.872309 3.40353C1.1418 2.77282 1.52122 2.22851 2.01057 1.7706C2.507 1.30405 3.09209 0.945499 3.76582 0.694944C4.43956 0.43575 5.18421 0.306152 5.99978 0.306152C7.14868 0.306152 8.13801 0.565347 8.96776 1.08374C9.80461 1.60213 10.4464 2.29763 10.8932 3.17025C11.3471 4.04287 11.5741 5.00621 11.5741 6.06027H8.92521C8.92521 5.43821 8.81529 4.88958 8.59544 4.41439C8.38268 3.93056 8.05645 3.5504 7.61675 3.27393C7.18414 2.99746 6.63451 2.85922 5.96787 2.85922C5.33669 2.85922 4.81188 2.97586 4.39346 3.20913C3.97504 3.44241 3.66299 3.75776 3.45732 4.15519C3.25166 4.55262 3.14882 5.00189 3.14882 5.503C3.14882 5.85724 3.2162 6.18123 3.35094 6.47498C3.48569 6.7601 3.69136 7.02793 3.96794 7.27849C4.24453 7.5204 4.59203 7.74936 5.01046 7.96535C5.42888 8.18135 5.92177 8.3887 6.48913 8.58742C7.34725 8.89845 8.09545 9.24405 8.73373 9.6242C9.372 9.99571 9.9039 10.4191 10.3294 10.8943C10.7549 11.3694 11.0741 11.9094 11.2868 12.5142C11.4996 13.1104 11.606 13.7886 11.606 14.5489C11.606 15.3438 11.4748 16.0609 11.2124 16.7002C10.95 17.3309 10.5741 17.8709 10.0847 18.3202C9.60249 18.7608 9.02095 19.1021 8.34013 19.344C7.66639 19.5773 6.91465 19.6939 6.08489 19.6939C5.34023 19.6939 4.60622 19.573 3.88284 19.331C3.16655 19.0891 2.51409 18.7219 1.92546 18.2295C1.33683 17.7283 0.868763 17.1063 0.521258 16.3633C0.173753 15.6116 0 14.7347 0 13.7324H2.67012C2.67012 14.3459 2.75522 14.8686 2.92543 15.3006C3.10273 15.7326 3.3474 16.0868 3.65944 16.3633C3.97149 16.6311 4.33318 16.8298 4.74451 16.9594C5.16294 17.089 5.60973 17.1538 6.08489 17.1538C6.70898 17.1538 7.23024 17.0458 7.64866 16.8298C8.07418 16.6138 8.39332 16.3114 8.60607 15.9226C8.81883 15.5338 8.92521 15.0846 8.92521 14.5748Z" fill="white"/>
<path d="M16.6595 0.565347V19.4347H13.9894V0.565347H16.6595ZM22.9784 8.8207V11.3997H15.9787V8.8207H22.9784ZM23.8614 0.565347V3.15729H15.9787V0.565347H23.8614Z" fill="white"/>
<path d="M35.1593 13.2918H37.8188C37.7337 14.5273 37.45 15.6289 36.9678 16.5965C36.4855 17.5556 35.8082 18.3115 34.9359 18.8645C34.0636 19.4174 33.0034 19.6939 31.7552 19.6939C30.7978 19.6939 29.9361 19.4866 29.1702 19.0718C28.4043 18.6485 27.7483 18.0523 27.2022 17.2834C26.6561 16.5058 26.2377 15.5684 25.9469 14.4711C25.6632 13.3739 25.5214 12.147 25.5214 10.7906V9.22245C25.5214 7.86599 25.6668 6.63914 25.9575 5.54188C26.2554 4.44463 26.6809 3.50721 27.2341 2.72962C27.7873 1.9434 28.4504 1.34293 29.2234 0.928219C30.0035 0.513508 30.8793 0.306152 31.8509 0.306152C33.0849 0.306152 34.1275 0.582627 34.9785 1.13558C35.8295 1.68852 36.4891 2.45315 36.9571 3.42945C37.4323 4.40575 37.7231 5.5246 37.8295 6.78602H35.17C35.0991 5.97387 34.943 5.27837 34.7019 4.6995C34.4679 4.12063 34.1204 3.68 33.6594 3.37761C33.1984 3.06657 32.5956 2.91106 31.8509 2.91106C31.241 2.91106 30.7091 3.0493 30.2553 3.32577C29.8014 3.60224 29.422 4.00832 29.117 4.54398C28.812 5.07965 28.5816 5.7406 28.4255 6.52682C28.2766 7.30441 28.2021 8.19431 28.2021 9.19653V10.7906C28.2021 11.741 28.2695 12.6049 28.4043 13.3825C28.5461 14.1515 28.7589 14.8124 29.0425 15.3654C29.3333 15.9183 29.7021 16.346 30.1489 16.6484C30.5957 16.9508 31.1311 17.102 31.7552 17.102C32.514 17.102 33.1275 16.9551 33.5956 16.6613C34.0707 16.3676 34.4289 15.9399 34.67 15.3783C34.9182 14.8081 35.0813 14.1126 35.1593 13.2918Z" fill="white"/>
<path d="M49.4147 13.2918H52.0741C51.989 14.5273 51.7054 15.6289 51.2231 16.5965C50.7408 17.5556 50.0636 18.3115 49.1913 18.8645C48.3189 19.4174 47.2587 19.6939 46.0105 19.6939C45.0531 19.6939 44.1914 19.4866 43.4255 19.0718C42.6596 18.6485 42.0036 18.0523 41.4575 17.2834C40.9114 16.5058 40.493 15.5684 40.2022 14.4711C39.9185 13.3739 39.7767 12.147 39.7767 10.7906V9.22245C39.7767 7.86599 39.9221 6.63914 40.2129 5.54188C40.5107 4.44463 40.9362 3.50721 41.4894 2.72962C42.0426 1.9434 42.7057 1.34293 43.4787 0.928219C44.2588 0.513508 45.1347 0.306152 46.1063 0.306152C47.3403 0.306152 48.3828 0.582627 49.2338 1.13558C50.0848 1.68852 50.7444 2.45315 51.2125 3.42945C51.6876 4.40575 51.9784 5.5246 52.0848 6.78602H49.4253C49.3544 5.97387 49.1984 5.27837 48.9572 4.6995C48.7232 4.12063 48.3757 3.68 47.9147 3.37761C47.4537 3.06657 46.8509 2.91106 46.1063 2.91106C45.4964 2.91106 44.9645 3.0493 44.5106 3.32577C44.0567 3.60224 43.6773 4.00832 43.3723 4.54398C43.0674 5.07965 42.8369 5.7406 42.6809 6.52682C42.5319 7.30441 42.4575 8.19431 42.4575 9.19653V10.7906C42.4575 11.741 42.5248 12.6049 42.6596 13.3825C42.8014 14.1515 43.0142 14.8124 43.2979 15.3654C43.5886 15.9183 43.9574 16.346 44.4042 16.6484C44.851 16.9508 45.3864 17.102 46.0105 17.102C46.7694 17.102 47.3828 16.9551 47.8509 16.6613C48.326 16.3676 48.6842 15.9399 48.9253 15.3783C49.1735 14.8081 49.3366 14.1126 49.4147 13.2918Z" fill="white"/>
<path d="M65.8513 12.3976H61.8195V9.81859H65.8513C66.5534 9.81859 67.1207 9.68036 67.5533 9.40388C67.9859 9.12741 68.3015 8.74726 68.5001 8.26343C68.7058 7.77096 68.8086 7.20937 68.8086 6.57866C68.8086 5.98251 68.7058 5.42525 68.5001 4.90686C68.3015 4.37983 67.9859 3.95648 67.5533 3.6368C67.1207 3.31713 66.5534 3.15729 65.8513 3.15729H62.6386V19.4347H59.9685V0.565347H65.8513C67.0498 0.565347 68.0675 0.824542 68.9043 1.34293C69.7483 1.85268 70.3901 2.56115 70.8298 3.46833C71.2695 4.36687 71.4893 5.39501 71.4893 6.55274C71.4893 7.77096 71.2695 8.81637 70.8298 9.689C70.3901 10.5616 69.7483 11.2312 68.9043 11.6978C68.0675 12.1643 67.0498 12.3976 65.8513 12.3976Z" fill="white"/>
<path d="M73.9047 0.565347H79.3832C80.5605 0.565347 81.564 0.781342 82.3937 1.21333C83.2235 1.64532 83.8582 2.28467 84.2979 3.13137C84.7447 3.96944 84.9681 5.00621 84.9681 6.24171C84.9681 7.18345 84.8263 8.01287 84.5426 8.72998C84.2589 9.44708 83.8582 10.0519 83.3405 10.5443C82.8228 11.0282 82.2058 11.404 81.4895 11.6718L80.681 12.1513H75.7557L75.7344 9.57236H79.4257C80.064 9.57236 80.5959 9.43412 81.0214 9.15765C81.447 8.88117 81.7661 8.50534 81.9788 8.03015C82.1987 7.54632 82.3086 7.00201 82.3086 6.39723C82.3086 5.7406 82.2022 5.17037 81.9895 4.68654C81.7838 4.19407 81.4647 3.81824 81.0321 3.55904C80.5995 3.29121 80.0498 3.15729 79.3832 3.15729H76.5748V19.4347H73.9047V0.565347ZM82.7448 19.4347L79.1066 10.9591L81.9044 10.9461L85.5957 19.2662V19.4347H82.7448Z" fill="white"/>
<path d="M100 9.48164V10.5184C100 11.944 99.8475 13.2227 99.5426 14.3545C99.2376 15.4863 98.8014 16.4497 98.2341 17.2445C97.6738 18.0394 97.0001 18.6485 96.2129 19.0718C95.4257 19.4866 94.5534 19.6939 93.596 19.6939C92.6456 19.6939 91.7769 19.4866 90.9897 19.0718C90.2096 18.6485 89.5323 18.0394 88.9578 17.2445C88.3834 16.4497 87.9366 15.4863 87.6175 14.3545C87.3054 13.2227 87.1494 11.944 87.1494 10.5184V9.48164C87.1494 8.05607 87.3054 6.7817 87.6175 5.65852C87.9295 4.5267 88.3692 3.56336 88.9366 2.7685C89.511 1.965 90.1883 1.35589 90.9684 0.941179C91.7556 0.517828 92.6244 0.306152 93.5747 0.306152C94.5321 0.306152 95.4044 0.517828 96.1916 0.941179C96.9788 1.35589 97.6561 1.965 98.2235 2.7685C98.7908 3.56336 99.227 4.5267 99.5319 5.65852C99.844 6.7817 100 8.05607 100 9.48164ZM97.3299 10.5184V9.45572C97.3299 8.40166 97.2448 7.47288 97.0746 6.66938C96.9114 5.85724 96.6668 5.17901 96.3405 4.6347C96.0214 4.08175 95.6278 3.66704 95.1597 3.39057C94.6917 3.10545 94.1633 2.9629 93.5747 2.9629C92.9861 2.9629 92.4613 3.10545 92.0003 3.39057C91.5393 3.66704 91.1457 4.08175 90.8195 4.6347C90.5003 5.17901 90.2557 5.85724 90.0855 6.66938C89.9153 7.47288 89.8301 8.40166 89.8301 9.45572V10.5184C89.8301 11.5725 89.9153 12.5056 90.0855 13.3177C90.2557 14.1299 90.5039 14.8167 90.8301 15.3783C91.1634 15.9313 91.5606 16.3503 92.0216 16.6354C92.4825 16.9119 93.0073 17.0501 93.596 17.0501C94.1917 17.0501 94.72 16.9119 95.181 16.6354C95.642 16.3503 96.032 15.9313 96.3512 15.3783C96.6703 14.8167 96.9114 14.1299 97.0746 13.3177C97.2448 12.5056 97.3299 11.5725 97.3299 10.5184Z" fill="white"/>
</svg>
