<svg width="188" height="166" viewBox="0 0 188 166" fill="none" xmlns="http://www.w3.org/2000/svg">
<path d="M3.77408 81.7799L2.08724 4.29735L109.822 4.29762L115.253 151.673L8.22039 160.54L3.77408 81.7799Z" fill="#E7E7E7" stroke="#75757A" stroke-width="1.11588"/>
<path d="M135.665 152.585C133.541 134.315 93.1899 86.5319 93.1899 5.01953H2.57617C10.3633 54.9107 6.41528 124.341 20.2742 162.423L135.665 152.585Z" fill="white" stroke="#75757A" stroke-width="1.11588"/>
<path d="M147.624 152.808C145.5 134.39 105.149 86.2181 105.149 4.04297H6.2168C14.0039 54.3398 8.8715 137.932 32.2329 162.726L147.624 152.808Z" fill="white" stroke="#75757A" stroke-width="1.11588"/>
<path d="M157.86 154.089C155.736 135.671 115.385 87.4993 115.385 5.32422H3.65625C11.4434 55.6211 19.108 139.213 42.4693 164.007L157.86 154.089Z" fill="white" stroke="#75757A" stroke-width="1.11588"/>
<path d="M162.98 142.908C161.068 125.677 115.794 80.6137 115.794 3.74023H4.29688C11.3053 50.7921 29.1449 128.991 50.1701 152.186L162.98 142.908Z" fill="white" stroke="#75757A" stroke-width="1.11588"/>
<path d="M114.99 4.37948C67.6414 4.37929 43.1277 3.73998 6.65625 4.38112C11.1352 57.3863 40.5683 143.868 52.0856 151.546C118.63 145.788 151.262 143.869 164.059 142.589C139.745 136.189 125.22 133.838 100.477 108.675C62.7255 70.2841 47.6067 22.9351 47.6067 12.6975L99.568 13.1915L115.48 14.0516L114.99 4.37948Z" fill="#FAFAFA"/>
<path d="M7.49609 14.4203C38.6355 13.7804 103.346 12.8845 115.631 14.4201" stroke="#75757A" stroke-width="1.11588"/>
<path d="M164.26 165C178.549 161.397 198.554 142.784 164.26 97.1578" stroke="#CCCBCE" stroke-width="1.11588" stroke-linecap="round"/>
<path d="M187.375 112.123C187.81 108.245 185.728 98.0955 173.922 88.5136" stroke="#CCCBCE" stroke-width="1.11588" stroke-linecap="round"/>
<path d="M61.7233 64.0634C58.6779 67.4705 59.2901 73.9461 62.6197 77.0762C65.9492 80.2062 83.4995 90 83.4995 90C83.4995 90 87.5738 79.1724 90.1047 74.6884C92.6355 70.2045 92.2007 66.0131 88.8713 62.8832C85.5417 59.7532 81.0927 59.9467 78.0472 63.3538L75.7634 65.9092L73.2661 63.5616C69.9366 60.4316 64.7687 60.6563 61.7233 64.0634Z" stroke="#75757A" stroke-width="1.24479" stroke-linecap="round" stroke-linejoin="round"/>
</svg>
